<svg xmlns="http://www.w3.org/2000/svg" width="80" height="80" fill="none"><path fill="#fff" fill-rule="evenodd" d="M71.586 71.586H8V8h63.586zM36.595 52.6c0 3.27.17 6.268-.363 7.187-.87 1.807-3.124 1.583-4.152 1.233-1.046-.514-1.577-1.246-2.193-2.279-.169-.296-.296-.525-.34-.544l-4.835 2.961c.804 1.65 1.989 3.083 3.506 4.014 2.266 1.36 5.312 1.777 8.498 1.046 2.073-.604 3.862-1.856 4.799-3.76 1.354-2.497 1.064-5.518 1.051-8.86.03-5.453.001-10.904.001-16.374H36.62zM55.78 36.85l-1.874.243c-1.795.453-3.505 1.395-4.508 2.658-3.01 3.415-2.152 9.394 1.511 11.854 3.608 2.708 8.909 3.324 9.586 5.856.659 3.1-2.278 4.105-5.198 3.748-2.152-.448-3.349-1.542-4.643-3.53-2.38 1.378-2.38 1.378-4.829 2.786.58 1.27 1.191 1.844 2.164 2.944 4.606 4.672 16.132 4.442 18.2-2.63.084-.244.64-1.863.192-4.358-.466-2.9-2.357-5.337-7.96-7.61-1.946-.894-4.116-1.534-4.763-3.01-.23-.858-.26-1.342-.115-1.861.417-1.686 2.43-2.212 4.025-1.73 1.028.345 2 1.137 2.587 2.4 2.744-1.776 2.739-1.764 4.655-2.985-.702-1.087-1.076-1.59-1.536-2.055-1.65-1.843-3.898-2.793-7.494-2.72" clip-rule="evenodd"/></svg>