<svg xmlns="http://www.w3.org/2000/svg" width="80" height="80" fill="none"><mask id="a" width="65" height="40" x="8" y="20" maskUnits="userSpaceOnUse" style="mask-type:luminance"><path fill="#fff" d="M8 20.797h64v38.4H8z"/></mask><g mask="url(#a)"><path fill="#fff" fill-rule="evenodd" d="M40 20.797q-12.8 0-16 12.8 4.8-6.399 11.2-4.8c2.435.608 4.174 2.375 6.1 4.33 3.138 3.184 6.769 6.87 14.7 6.87q12.8 0 16-12.8-4.8 6.4-11.2 4.8c-2.434-.608-4.174-2.375-6.1-4.33-3.137-3.184-6.769-6.87-14.7-6.87m-16 19.2q-12.8 0-16 12.8 4.8-6.399 11.2-4.8c2.435.61 4.175 2.376 6.1 4.33 3.138 3.184 6.769 6.87 14.7 6.87q12.8 0 16-12.8-4.8 6.4-11.2 4.8c-2.434-.608-4.174-2.375-6.1-4.33-3.137-3.184-6.769-6.87-14.7-6.87" clip-rule="evenodd"/></g></svg>