<svg xmlns="http://www.w3.org/2000/svg" width="80" height="80" fill="none"><path fill="#fff" d="M14.913 46.198c0 2.458.536 4.345 1.237 5.487.92 1.495 2.29 2.129 3.688 2.129 1.803 0 3.452-.45 6.63-4.871 2.546-3.544 5.546-8.519 7.565-11.637l3.419-5.283c2.374-3.67 5.123-7.748 8.275-10.513 2.572-2.256 5.348-3.51 8.14-3.51 4.69 0 9.157 2.733 12.576 7.86C70.183 31.474 72 38.546 72 45.844c0 4.339-.85 7.526-2.297 10.045-1.398 2.436-4.122 4.869-8.704 4.869v-6.944c3.923 0 4.903-3.627 4.903-7.777 0-5.915-1.371-12.478-4.391-17.168-2.144-3.327-4.921-5.36-7.977-5.36-3.305 0-5.965 2.508-8.954 6.978-1.589 2.375-3.22 5.27-5.052 8.536l-2.016 3.593c-4.05 7.224-5.077 8.87-7.102 11.585-3.55 4.755-6.581 6.557-10.572 6.557-4.734 0-7.727-2.062-9.581-5.169C8.743 53.057 8 49.735 8 45.949z"/><path fill="#fff" d="M13.45 26.35C16.62 21.436 21.193 18 26.44 18c3.037 0 6.057.904 9.211 3.494 3.45 2.832 7.127 7.496 11.713 15.18l1.645 2.759c3.97 6.653 6.23 10.076 7.552 11.69 1.7 2.073 2.89 2.69 4.438 2.69 3.923 0 4.903-3.626 4.903-7.776L72 45.844c0 4.339-.85 7.526-2.297 10.045-1.398 2.436-4.122 4.869-8.704 4.869-2.85 0-5.373-.622-8.164-3.27-2.145-2.033-4.654-5.644-6.583-8.89l-5.74-9.644c-2.88-4.84-5.522-8.449-7.051-10.083-1.645-1.758-3.76-3.88-7.133-3.88-2.73 0-5.05 1.928-6.99 4.876z"/><path fill="#fff" d="M26.328 24.991c-2.73 0-5.05 1.928-6.99 4.876-2.745 4.166-4.425 10.372-4.425 16.33 0 2.459.536 4.346 1.237 5.488l-5.893 3.904C8.743 53.057 8 49.735 8 45.949c0-6.883 1.878-14.058 5.45-19.599C16.62 21.436 21.194 18 26.44 18z"/></svg>