<svg xmlns="http://www.w3.org/2000/svg" width="80" height="80" fill="none"><path fill="#0ACF83" d="M30.671 72c5.888 0 10.667-4.779 10.667-10.667V50.667H30.671c-5.888 0-10.666 4.778-10.666 10.666S24.783 72 30.67 72"/><path fill="#A259FF" d="M20.005 40c0-5.888 4.778-10.666 10.666-10.666h10.667v21.333H30.671c-5.888 0-10.666-4.779-10.666-10.667"/><path fill="#F24E1E" d="M20.005 18.667C20.005 12.779 24.783 8 30.67 8h10.667v21.333H30.671c-5.888 0-10.666-4.778-10.666-10.666"/><path fill="#FF7262" d="M41.338 8h10.667c5.888 0 10.666 4.779 10.666 10.667s-4.778 10.666-10.666 10.666H41.338z"/><path fill="#1ABCFE" d="M62.671 40c0 5.888-4.778 10.667-10.666 10.667S41.338 45.888 41.338 40s4.779-10.666 10.667-10.666S62.67 34.112 62.67 40"/></svg>