<svg xmlns="http://www.w3.org/2000/svg" width="80" height="80" fill="none"><path fill="#D9D9D9" d="M39.696 14.124c-2.111.01-4.126.19-5.9.503-5.225.923-6.173 2.855-6.173 6.419v4.705h12.346v1.569H22.99c-3.588 0-6.73 2.156-7.713 6.26-1.134 4.703-1.184 7.638 0 12.548.877 3.656 2.973 6.26 6.562 6.26h4.245v-5.641c0-4.076 3.526-7.67 7.713-7.67H46.13c3.433 0 6.173-2.827 6.173-6.274V21.046c0-3.346-2.823-5.86-6.173-6.418a38.6 38.6 0 0 0-6.433-.504m-6.677 3.784c1.275 0 2.317 1.059 2.317 2.36 0 1.297-1.042 2.346-2.317 2.346-1.28 0-2.317-1.049-2.317-2.345 0-1.302 1.037-2.36 2.317-2.36"/><path fill="url(#a)" d="M39.696 14.124c-2.111.01-4.126.19-5.9.503-5.225.923-6.173 2.855-6.173 6.419v4.705h12.346v1.569H22.99c-3.588 0-6.73 2.156-7.713 6.26-1.134 4.703-1.184 7.638 0 12.548.877 3.656 2.973 6.26 6.562 6.26h4.245v-5.641c0-4.076 3.526-7.67 7.713-7.67H46.13c3.433 0 6.173-2.827 6.173-6.274V21.046c0-3.346-2.823-5.86-6.173-6.418a38.6 38.6 0 0 0-6.433-.504m-6.677 3.784c1.275 0 2.317 1.059 2.317 2.36 0 1.297-1.042 2.346-2.317 2.346-1.28 0-2.317-1.049-2.317-2.345 0-1.302 1.037-2.36 2.317-2.36"/><path fill="#D9D9D9" d="M53.841 27.32v5.483c0 4.25-3.604 7.827-7.713 7.827H33.796c-3.378 0-6.173 2.892-6.173 6.275v11.757c0 3.346 2.909 5.314 6.173 6.274 3.908 1.148 7.656 1.356 12.332 0 3.108-.9 6.173-2.712 6.173-6.274v-4.706H39.97v-1.569h18.506c3.588 0 4.926-2.502 6.174-6.26 1.29-3.867 1.234-7.586 0-12.547-.887-3.573-2.58-6.26-6.174-6.26zm-6.936 29.773c1.28 0 2.317 1.049 2.317 2.346 0 1.301-1.037 2.36-2.317 2.36-1.275 0-2.317-1.059-2.317-2.36 0-1.297 1.042-2.346 2.317-2.346"/><path fill="url(#b)" d="M53.841 27.32v5.483c0 4.25-3.604 7.827-7.713 7.827H33.796c-3.378 0-6.173 2.892-6.173 6.275v11.757c0 3.346 2.909 5.314 6.173 6.274 3.908 1.148 7.656 1.356 12.332 0 3.108-.9 6.173-2.712 6.173-6.274v-4.706H39.97v-1.569h18.506c3.588 0 4.926-2.502 6.174-6.26 1.29-3.867 1.234-7.586 0-12.547-.887-3.573-2.58-6.26-6.174-6.26zm-6.936 29.773c1.28 0 2.317 1.049 2.317 2.346 0 1.301-1.037 2.36-2.317 2.36-1.275 0-2.317-1.059-2.317-2.36 0-1.297 1.042-2.346 2.317-2.346"/><defs><linearGradient id="a" x1="19.179" x2="44.675" y1="18.705" y2="44.107" gradientUnits="userSpaceOnUse"><stop stop-color="#387EB8"/><stop offset="1" stop-color="#366994"/></linearGradient><linearGradient id="b" x1="34.759" x2="62.286" y1="35.278" y2="61.32" gradientUnits="userSpaceOnUse"><stop stop-color="#FFE052"/><stop offset="1" stop-color="#FFC331"/></linearGradient></defs></svg>