<svg xmlns="http://www.w3.org/2000/svg" width="80" height="80" fill="none"><path fill="#264DE4" d="m68.216 8-5.141 57.594L39.965 72 16.92 65.603 11.784 8z"/><path fill="#2965F1" d="m58.674 61.927 4.393-49.217H40v54.394z"/><path fill="#EBEBEB" d="m23.558 34.074.633 7.064H40v-7.064zM40 19.775H22.286l.641 7.065H40zm0 39.997v-7.35l-.03.008-7.869-2.124-.503-5.635h-7.091l.99 11.093 14.47 4.017z"/><path fill="#fff" d="m48.675 41.139-.82 9.162-7.88 2.127v7.35l14.484-4.014.106-1.194 1.66-18.599.173-1.897 1.275-14.3H39.976v7.066h9.955l-.643 7.234h-9.312v7.065z"/></svg>