<svg xmlns="http://www.w3.org/2000/svg" width="80" height="80" fill="none"><mask id="a" width="65" height="65" x="8" y="8" maskUnits="userSpaceOnUse" style="mask-type:luminance"><path fill="#fff" d="M72.002 22.08v35.84c0 7.771-6.31 14.08-14.08 14.08h-35.84c-7.771 0-14.08-6.309-14.08-14.08V22.08C8.002 14.31 14.31 8 22.082 8h35.84c7.77 0 14.08 6.31 14.08 14.08"/></mask><g mask="url(#a)"><mask id="b" width="66" height="66" x="7" y="7" maskUnits="userSpaceOnUse" style="mask-type:luminance"><path fill="#fff" d="M7.233 7.314H72.77v65.372H7.233z"/></mask><g mask="url(#b)"><path fill="#FF4F00" fill-rule="evenodd" d="M7.32 7.314h65.372v65.372H7.32z" clip-rule="evenodd"/><path fill="#FF4F00" fill-rule="evenodd" d="M72.692 40c0 18.04-14.646 32.686-32.686 32.686S7.32 58.04 7.32 40 21.966 7.314 40.006 7.314 72.692 21.96 72.692 40" clip-rule="evenodd"/><path fill="#FFFDF9" d="m16.517 43.328-.01-.03 5.894-5.395v-2.6h-9.455v2.6h5.647l.01.025-5.836 5.4v2.6h9.73v-2.6zM28.3 35.056q-1.637 0-2.667.493a3.5 3.5 0 0 0-1.547 1.356 4.9 4.9 0 0 0-.65 1.962l2.87.403q.154-.916.622-1.3c.354-.267.79-.402 1.233-.381q.874 0 1.267.467c.26.311.392.742.392 1.31v.284h-2.758q-2.106 0-3.026.934t-.919 2.466q0 1.57.919 2.335.918.765 2.31.761 1.726 0 2.656-1.188a4.4 4.4 0 0 0 .767-1.636h.104l.396 2.6h2.6V39.34q0-2.041-1.076-3.162T28.3 35.056m.909 8.115q-.618.516-1.625.516-.832 0-1.156-.292a.95.95 0 0 1-.325-.739.97.97 0 0 1 .27-.718 1 1 0 0 1 .739-.269h2.713v.179a1.65 1.65 0 0 1-.616 1.323m16.303-7.868h3.072v10.626h-3.072zm21.218 0q-1.3 0-2.052.918-.539.66-.818 1.95h-.09l-.402-2.868h-2.623v10.625h3.071v-5.449q0-1.03.483-1.58.482-.55 1.78-.55h1.167v-3.046zm-9.044.346q-1.075-.64-2.713-.638-2.578 0-4.035 1.468t-1.457 4.048a6.45 6.45 0 0 0 .661 3.003 4.77 4.77 0 0 0 1.884 1.984q1.22.705 2.903.707 1.455 0 2.432-.448a3.9 3.9 0 0 0 1.547-1.222 5.3 5.3 0 0 0 .841-1.738l-2.647-.74a2.45 2.45 0 0 1-.622 1.077q-.45.448-1.502.448-1.254 0-1.868-.717-.445-.52-.567-1.48h7.246q.046-.448.046-.751v-.662a5.9 5.9 0 0 0-.537-2.578 4.04 4.04 0 0 0-1.612-1.76m-2.802 1.895q1.869 0 2.119 1.838h-4.406c.07-.408.24-.794.494-1.122q.605-.717 1.793-.716m-7.8-6.523a1.72 1.72 0 0 0-1.256.482 1.67 1.67 0 0 0-.493 1.246 1.69 1.69 0 0 0 1.75 1.748 1.66 1.66 0 0 0 1.614-1.072c.083-.215.12-.446.112-.676a1.655 1.655 0 0 0-1.726-1.728m-6.345 3.99q-1.569 0-2.522.985-.705.73-1.035 2.18h-.098l-.402-2.869H34.06v13.674h3.072V43.35h.112q.141.564.392 1.09c.26.569.686 1.045 1.222 1.367a3.6 3.6 0 0 0 1.816.437q1.928 0 2.937-1.502 1.01-1.502 1.009-4.192 0-2.599-.976-4.068-.976-1.47-2.904-1.47m.312 7.7q-.537.778-1.682.778a1.98 1.98 0 0 1-1.647-.752q-.595-.748-.594-2.05v-.202q0-1.322.594-2.024.595-.703 1.647-.694 1.165 0 1.693.739.527.739.527 2.063.004 1.368-.535 2.142z"/></g></g></svg>