<svg xmlns="http://www.w3.org/2000/svg" width="80" height="80" fill="none"><path fill="#F7DF1E" d="M8 8h63.585v63.586H8z"/><path fill="#000" d="M66.381 56.42c-.466-2.9-2.357-5.337-7.96-7.608-1.946-.895-4.116-1.535-4.763-3.01-.23-.859-.26-1.343-.115-1.862.417-1.686 2.43-2.212 4.026-1.729 1.027.345 2 1.137 2.587 2.4 2.743-1.777 2.738-1.765 4.654-2.986-.702-1.088-1.076-1.59-1.535-2.055-1.65-1.843-3.9-2.793-7.495-2.72l-1.873.242c-1.795.454-3.506 1.396-4.51 2.66-3.01 3.415-2.151 9.392 1.512 11.852 3.608 2.708 8.909 3.325 9.586 5.857.659 3.1-2.279 4.104-5.198 3.748-2.152-.448-3.348-1.541-4.642-3.53-2.381 1.378-2.381 1.378-4.83 2.786.58 1.27 1.19 1.844 2.164 2.944 4.606 4.672 16.132 4.442 18.2-2.63.083-.242.64-1.861.192-4.358M42.567 37.225H36.62l-.025 15.377c0 3.27.17 6.268-.363 7.187-.87 1.807-3.124 1.583-4.152 1.232-1.046-.514-1.578-1.245-2.194-2.278-.169-.296-.296-.526-.338-.544l-4.836 2.962c.804 1.65 1.989 3.082 3.506 4.013 2.266 1.36 5.312 1.777 8.498 1.046 2.073-.604 3.862-1.855 4.799-3.76 1.354-2.496 1.064-5.518 1.051-8.86.03-5.453 0-10.905 0-16.375"/></svg>